<?xml version="1.0" encoding="UTF-8" standalone="no"?>
<svg width="24px" height="24px" viewBox="0 0 24 24" version="1.1" xmlns="http://www.w3.org/2000/svg" xmlns:xlink="http://www.w3.org/1999/xlink">
    <!-- Generator: Sketch 42 (36781) - http://www.bohemiancoding.com/sketch -->
    <title>icons/UGD-legend-camp-un</title>
    <desc>Created with Sketch.</desc>
    <defs>
        <polygon id="path-1" points="1.5275731e-16 11.9995 1.5275731e-16 0.015 13.644 0.015 13.644 11.9995 0 11.9995"></polygon>
    </defs>
    <g id="Symbols" stroke="none" stroke-width="1" fill="none" fill-rule="evenodd">
        <g id="icons/UGD-legend-camp-un">
            <g id="Page-1" transform="translate(5.000000, 6.000000)">
                <polygon id="Fill-1" fill="#FFFFFF" points="1.2645 11.9855 12.3785 11.9855 6.8225 2.3605"></polygon>
                <g id="Group-4" transform="translate(0.000000, 0.985400)">
                    <mask id="mask-2" fill="white">
                        <use xlink:href="#path-1"></use>
                    </mask>
                    <g id="Clip-3"></g>
                    <path d="M6.822,0.0145 C6.607,0.0145 6.392,0.1205 6.269,0.3335 L0.086,11.0425 C-0.159,11.4685 0.148,11.9995 0.639,11.9995 L13.005,11.9995 C13.496,11.9995 13.803,11.4685 13.558,11.0425 L7.375,0.3335 C7.252,0.1205 7.037,0.0145 6.822,0.0145 M6.822,3.3765 L10.646,9.9995 L2.998,9.9995 L6.822,3.3765 M8.001,1.3335 L8.006,1.3335 L8.001,1.3335" id="Fill-2" fill="#52595E" mask="url(#mask-2)"></path>
                </g>
            </g>
        </g>
    </g>
</svg>