<?xml version="1.0" encoding="utf-8"?>
<!-- Generator: Adobe Illustrator 16.0.0, SVG Export Plug-In . SVG Version: 6.00 Build 0)  -->
<!DOCTYPE svg PUBLIC "-//W3C//DTD SVG 1.0//EN" "http://www.w3.org/TR/2001/REC-SVG-20010904/DTD/svg10.dtd">
<svg version="1.0" id="Layer_1" xmlns="http://www.w3.org/2000/svg" xmlns:xlink="http://www.w3.org/1999/xlink" x="0px" y="0px"
	 width="32px" height="32px" viewBox="0 0 32 32" enable-background="new 0 0 32 32" xml:space="preserve">
<g opacity="0.8">
	<path fill="#FFFFFF" d="M28,30H4c-1.104,0-2-0.896-2-2V16c0-0.53,0.211-1.039,0.586-1.414l12-12c0.78-0.781,2.047-0.781,2.828,0
		l12,12C29.789,14.961,30,15.47,30,16v12C30,29.104,29.104,30,28,30z"/>
</g>
<title>icons/UGD-camp-icon</title>
<desc>Created with Sketch.</desc>
<g>
	<path id="path-1_2_" fill="#52595E" d="M16,6.829l10,10V26H6v-9.172L16,6.829 M16,4L4,16v12h24V16L16,4L16,4z"/>
</g>
</svg>
