<svg width="149px" height="65px" viewBox="0 0 149 65" version="1.1" xmlns="http://www.w3.org/2000/svg" xmlns:xlink="http://www.w3.org/1999/xlink">
    <g id="GEOGRAPHICA_POS_DISP-RGB" stroke="none" stroke-width="1" fill="none" fill-rule="evenodd">
        <path d="M14.685,10.42 L10.994,10.42 L10.994,12.143 L12.805,12.143 C12.756,13.232 12.617,13.602 12.308,13.944 C12.013,14.284 11.555,14.506 10.995,14.506 C10.435,14.506 9.963,14.285 9.667,13.944 C9.271,13.502 9.167,13.015 9.167,10.994 C9.167,8.974 9.271,8.486 9.667,8.044 C9.963,7.704 10.436,7.483 10.995,7.483 C11.556,7.483 12.014,7.704 12.308,8.044 C12.509,8.268 12.639,8.503 12.717,8.943 L14.635,8.943 C14.548,8.004 14.316,7.366 13.694,6.746 C12.983,6.038 12.048,5.655 10.995,5.655 C9.943,5.655 9.009,6.039 8.298,6.746 C7.304,7.734 7.304,8.767 7.304,10.994 C7.304,13.222 7.304,14.255 8.298,15.243 C9.009,15.951 9.944,16.334 10.995,16.334 C12.048,16.334 12.983,15.951 13.694,15.243 C14.686,14.255 14.686,13.222 14.686,10.994 C14.685,10.793 14.685,10.602 14.685,10.42 Z" id="Shape" fill="#15B750" fill-rule="nonzero"></path>
        <path d="M35.688,31.425 L31.997,31.425 L31.997,33.149 L33.806,33.149 C33.759,34.237 33.618,34.608 33.31,34.951 C33.015,35.29 32.557,35.512 31.998,35.512 C31.437,35.512 30.965,35.29 30.67,34.951 C30.273,34.509 30.17,34.021 30.17,32.001 C30.17,29.98 30.273,29.493 30.67,29.051 C30.965,28.71 31.438,28.489 31.998,28.489 C32.558,28.489 33.016,28.71 33.31,29.051 C33.511,29.275 33.641,29.51 33.72,29.949 L35.637,29.949 C35.551,29.011 35.318,28.372 34.696,27.752 C33.984,27.044 33.05,26.661 31.998,26.661 C30.946,26.661 30.011,27.044 29.299,27.752 C28.307,28.74 28.307,29.773 28.307,32.001 C28.307,34.228 28.307,35.261 29.299,36.249 C30.011,36.957 30.945,37.341 31.998,37.341 C33.051,37.341 33.984,36.957 34.696,36.249 C35.689,35.261 35.689,34.228 35.689,32.001 C35.688,31.798 35.688,31.607 35.688,31.425 Z" id="Shape" fill="#15B750" fill-rule="nonzero"></path>
        <polygon id="Shape" fill="#15B750" fill-rule="nonzero" points="28.305 16.246 28.305 5.743 35.688 5.743 35.688 7.573 30.354 7.573 30.354 10.035 34.951 10.035 34.951 11.865 30.354 11.865 30.354 14.416 35.688 14.416 35.688 16.246 28.305 16.246"></polygon>
        <path d="M55.697,6.746 C54.985,6.038 54.051,5.655 52.998,5.655 C51.946,5.655 51.012,6.039 50.3,6.746 C49.307,7.734 49.307,8.767 49.307,10.994 C49.307,13.222 49.307,14.255 50.3,15.243 C51.012,15.951 51.946,16.334 52.998,16.334 C54.051,16.334 54.985,15.951 55.697,15.243 C56.689,14.255 56.689,13.222 56.689,10.994 C56.689,8.767 56.689,7.734 55.697,6.746 Z M54.312,13.944 C54.017,14.284 53.559,14.506 52.999,14.506 C52.439,14.506 51.966,14.285 51.671,13.944 C51.275,13.502 51.171,13.015 51.171,10.994 C51.171,8.974 51.275,8.486 51.671,8.044 C51.966,7.704 52.44,7.483 52.999,7.483 C53.56,7.483 54.018,7.704 54.312,8.044 C54.71,8.486 54.829,8.974 54.829,10.994 C54.828,13.016 54.71,13.502 54.312,13.944 Z" id="Shape" fill="#15B750" fill-rule="nonzero"></path>
        <path d="M57.362,37.251 L55.132,32.942 C56.278,32.396 56.925,31.285 56.925,30.023 C56.925,28.238 55.628,26.748 53.46,26.748 L49.307,26.748 L49.307,37.251 L51.357,37.251 L51.357,33.298 L53.053,33.298 L54.988,37.251 L57.362,37.251 L57.362,37.251 Z M51.356,28.578 L53.356,28.578 C54.286,28.578 54.875,29.168 54.875,30.023 C54.875,30.878 54.286,31.453 53.356,31.453 L51.356,31.453 L51.356,28.578 Z" id="Shape" fill="#15B750" fill-rule="nonzero"></path>
        <path d="M76.342,37.251 L75.76,35.393 L72.256,35.393 L71.66,37.251 L69.653,37.251 L73.238,26.748 L74.748,26.748 L78.348,37.251 L76.342,37.251 Z M74.041,29.846 L72.795,33.666 L75.246,33.666 L74.041,29.846 Z" id="Shape" fill="#15B750" fill-rule="nonzero"></path>
        <polygon id="Shape" fill="#15B750" fill-rule="nonzero" points="117.647 37.251 117.647 32.855 114.362 32.855 114.362 37.251 112.313 37.251 112.313 26.748 114.362 26.748 114.362 31.041 117.647 31.041 117.647 26.748 119.697 26.748 119.697 37.251 117.647 37.251"></polygon>
        <path d="M95.465,33.297 L93.36,33.297 L93.36,37.251 L91.311,37.251 L91.311,26.748 L95.464,26.748 C97.631,26.748 98.929,28.238 98.929,30.023 C98.93,31.808 97.632,33.297 95.465,33.297 Z M95.36,28.578 L93.36,28.578 L93.36,31.453 L95.36,31.453 C96.289,31.453 96.88,30.879 96.88,30.023 C96.88,29.167 96.289,28.578 95.36,28.578 Z" id="Shape" fill="#15B750" fill-rule="nonzero"></path>
        <polygon id="Shape" fill="#15B750" fill-rule="nonzero" points="138.032 35.421 138.032 28.578 140.002 28.578 140.002 26.748 134.014 26.748 134.014 28.578 135.981 28.578 135.981 35.421 133.808 35.421 133.808 37.251 140.207 37.251 140.207 35.421"></polygon>
        <path d="M75.726,55.04 C75.647,55.49 75.518,55.728 75.314,55.955 C75.019,56.294 74.561,56.516 74.001,56.516 C73.441,56.516 72.968,56.294 72.673,55.955 C72.277,55.513 72.173,55.025 72.173,53.005 C72.173,50.985 72.277,50.497 72.673,50.055 C72.968,49.716 73.442,49.494 74.001,49.494 C74.562,49.494 75.02,49.716 75.314,50.055 C75.515,50.28 75.645,50.514 75.723,50.954 L77.641,50.954 C77.553,50.016 77.323,49.377 76.7,48.756 C75.988,48.048 75.054,47.665 74.001,47.665 C72.949,47.665 72.015,48.048 71.303,48.756 C70.31,49.744 70.31,50.777 70.31,53.005 C70.31,55.233 70.31,56.266 71.303,57.254 C72.015,57.962 72.949,58.344 74.001,58.344 C75.054,58.344 75.988,57.962 76.7,57.254 C77.327,56.631 77.557,55.988 77.643,55.04 L75.726,55.04 Z" id="Shape" fill="#15B750" fill-rule="nonzero"></path>
        <rect id="Rectangle-path" fill="#15B750" fill-rule="nonzero" x="135.981" y="51.979" width="2.051" height="2.053"></rect>
        <path d="M97.343,58.256 L96.762,56.398 L93.258,56.398 L92.661,58.256 L90.654,58.256 L94.241,47.754 L95.75,47.754 L99.35,58.256 L97.343,58.256 Z M95.043,50.851 L93.797,54.671 L96.249,54.671 L95.043,50.851 Z" id="Shape" fill="#15B750" fill-rule="nonzero"></path>
        <rect id="Rectangle-path" fill="#15B750" fill-rule="nonzero" x="21.003" y="0" width="0.984" height="0.984"></rect>
        <rect id="Rectangle-path" fill="#15B750" fill-rule="nonzero" x="42.005" y="0" width="0.983" height="0.984"></rect>
        <rect id="Rectangle-path" fill="#15B750" fill-rule="nonzero" x="63.008" y="0" width="0.983" height="0.984"></rect>
        <rect id="Rectangle-path" fill="#15B750" fill-rule="nonzero" x="21.003" y="21.005" width="0.984" height="0.984"></rect>
        <rect id="Rectangle-path" fill="#15B750" fill-rule="nonzero" x="0" y="0" width="0.984" height="0.984"></rect>
        <rect id="Rectangle-path" fill="#15B750" fill-rule="nonzero" x="0" y="21.005" width="0.984" height="0.984"></rect>
        <rect id="Rectangle-path" fill="#15B750" fill-rule="nonzero" x="42.005" y="21.005" width="0.983" height="0.984"></rect>
        <rect id="Rectangle-path" fill="#15B750" fill-rule="nonzero" x="63.008" y="21.005" width="0.983" height="0.984"></rect>
        <rect id="Rectangle-path" fill="#15B750" fill-rule="nonzero" x="84.01" y="21.005" width="0.983" height="0.984"></rect>
        <rect id="Rectangle-path" fill="#15B750" fill-rule="nonzero" x="21.003" y="42.01" width="0.984" height="0.984"></rect>
        <rect id="Rectangle-path" fill="#15B750" fill-rule="nonzero" x="42.005" y="42.01" width="0.983" height="0.984"></rect>
        <rect id="Rectangle-path" fill="#15B750" fill-rule="nonzero" x="63.008" y="42.01" width="0.983" height="0.984"></rect>
        <rect id="Rectangle-path" fill="#15B750" fill-rule="nonzero" x="84.01" y="42.01" width="0.983" height="0.984"></rect>
        <rect id="Rectangle-path" fill="#15B750" fill-rule="nonzero" x="105.012" y="21.005" width="0.983" height="0.984"></rect>
        <rect id="Rectangle-path" fill="#15B750" fill-rule="nonzero" x="105.012" y="42.01" width="0.983" height="0.984"></rect>
        <rect id="Rectangle-path" fill="#15B750" fill-rule="nonzero" x="126.015" y="21.005" width="0.983" height="0.984"></rect>
        <rect id="Rectangle-path" fill="#15B750" fill-rule="nonzero" x="126.015" y="42.01" width="0.983" height="0.984"></rect>
        <rect id="Rectangle-path" fill="#15B750" fill-rule="nonzero" x="84.01" y="63.016" width="0.983" height="0.984"></rect>
        <rect id="Rectangle-path" fill="#15B750" fill-rule="nonzero" x="63.008" y="63.016" width="0.983" height="0.984"></rect>
        <rect id="Rectangle-path" fill="#15B750" fill-rule="nonzero" x="105.012" y="63.016" width="0.983" height="0.984"></rect>
        <rect id="Rectangle-path" fill="#15B750" fill-rule="nonzero" x="126.015" y="63.016" width="0.983" height="0.984"></rect>
        <rect id="Rectangle-path" fill="#15B750" fill-rule="nonzero" x="147.017" y="21.005" width="0.983" height="0.984"></rect>
        <rect id="Rectangle-path" fill="#15B750" fill-rule="nonzero" x="147.017" y="42.01" width="0.983" height="0.984"></rect>
        <rect id="Rectangle-path" fill="#15B750" fill-rule="nonzero" x="147.017" y="63.016" width="0.983" height="0.984"></rect>
    </g>
</svg>