<?xml version="1.0" encoding="UTF-8" standalone="no"?>
<svg width="24px" height="24px" viewBox="0 0 24 24" version="1.1" xmlns="http://www.w3.org/2000/svg" xmlns:xlink="http://www.w3.org/1999/xlink">
    <!-- Generator: Sketch 42 (36781) - http://www.bohemiancoding.com/sketch -->
    <title>icon/print-icon</title>
    <desc>Created with Sketch.</desc>
    <defs>
        <polygon id="path-1" points="7.9845042 14.6131098 15.9690084 14.6131098 15.9690084 0 0 0 0 7.3065549 0 14.6131098 7.9845042 14.6131098"></polygon>
    </defs>
    <g id="Symbols" stroke="none" stroke-width="1" fill="none" fill-rule="evenodd">
        <g id="icon/print-icon">
            <g id="Page-1" transform="translate(4.000000, 5.000000)">
                <mask id="mask-2" fill="white">
                    <use xlink:href="#path-1"></use>
                </mask>
                <g id="Clip-2"></g>
                <path d="M14.558521,8.3434507 C14.437042,8.46387816 14.293042,8.52432515 14.1266891,8.52432515 C13.9603361,8.52432515 13.8163361,8.46391149 13.6948235,8.3434507 C13.5733782,8.22315652 13.5126387,8.0802697 13.5126387,7.91535672 C13.5126387,7.75044374 13.5733782,7.60772353 13.6948235,7.48726274 C13.8163025,7.36673531 13.9603025,7.30645493 14.1266891,7.30645493 C14.2930084,7.30645493 14.4370084,7.36673531 14.558521,7.48726274 C14.6799664,7.60769021 14.7409412,7.75044374 14.7409412,7.91535672 C14.7409412,8.0802697 14.6801008,8.22315652 14.558521,8.3434507 L14.558521,8.3434507 Z M12.284,7.30648825 L3.6852437,7.30648825 L3.6852437,1.21777026 L9.82729412,1.21777026 L9.82729412,2.7399081 C9.82729412,2.99362551 9.9170084,3.20918868 10.0958992,3.38683085 C10.2749916,3.5644397 10.4925042,3.65317748 10.7485714,3.65317748 L12.284,3.65317748 L12.284,7.30648825 Z M3.6852437,13.3953395 L12.284,13.3953395 L12.284,10.959899 L3.6852437,10.959899 L3.6852437,13.3953395 Z M15.4271933,6.62627634 C15.0655462,6.26779304 14.6321008,6.08865135 14.1266891,6.08865135 L13.5126387,6.08865135 L13.5126387,3.65314416 C13.5126387,3.39952672 13.448437,3.1203176 13.3204034,2.81601666 C13.1924706,2.51158243 13.0390252,2.27059421 12.8599328,2.09298536 L11.4010084,0.646856102 C11.221916,0.469413863 10.9788235,0.317130101 10.6718655,0.190204751 C10.3647059,0.0634126912 10.0833613,-1.91070315e-15 9.82729412,-1.91070315e-15 L3.37815126,-1.91070315e-15 C3.12221849,-1.91070315e-15 2.90463866,0.0887377807 2.72547899,0.266346632 C2.54642017,0.443855516 2.45677311,0.659518646 2.45677311,0.913269378 L2.45677311,6.08865135 L1.84262185,6.08865135 C1.33717647,6.08865135 0.903731092,6.267893 0.542184874,6.62627634 C0.180705882,6.98455971 0,7.4142865 0,7.91539004 L0,11.8732017 C0,11.9557748 0.0304201681,12.026785 0.0911596639,12.087332 C0.151966387,12.1474458 0.223966387,12.177536 0.307058824,12.177536 L2.45677311,12.177536 L2.45677311,13.6997071 C2.45677311,13.9535245 2.54631933,14.1691876 2.72547899,14.3467298 C2.90463866,14.5241721 3.12221849,14.6131098 3.37815126,14.6131098 L12.5910252,14.6131098 C12.8468571,14.6131098 13.0647395,14.5241721 13.2437311,14.3467298 C13.4228235,14.1690543 13.512437,13.9535245 13.512437,13.6997071 L13.512437,12.177536 L15.6621176,12.177536 C15.7451765,12.177536 15.8171765,12.1474458 15.877916,12.087332 C15.9386555,12.0268184 15.9690084,11.9557748 15.9690084,11.8732017 L15.9690084,7.91539004 C15.9691429,7.4142865 15.7885042,6.98455971 15.4271933,6.62627634 L15.4271933,6.62627634 Z" id="Fill-1" fill="#52595E" mask="url(#mask-2)"></path>
            </g>
        </g>
    </g>
</svg>