<?xml version="1.0" encoding="UTF-8" standalone="no"?>
<svg width="24px" height="24px" viewBox="0 0 24 24" version="1.1" xmlns="http://www.w3.org/2000/svg" xmlns:xlink="http://www.w3.org/1999/xlink">
    <!-- Generator: Sketch 42 (36781) - http://www.bohemiancoding.com/sketch -->
    <title>icons/UGD-camp-icon Copy 7</title>
    <desc>Created with Sketch.</desc>
    <defs>
        <circle id="path-1" cx="12" cy="12" r="12"></circle>
        <mask id="mask-2" maskContentUnits="userSpaceOnUse" maskUnits="objectBoundingBox" x="0" y="0" width="24" height="24" fill="white">
            <use xlink:href="#path-1"></use>
        </mask>
    </defs>
    <g id="Symbols" stroke="none" stroke-width="1" fill="none" fill-rule="evenodd">
        <g id="icons/UGD-camp-icon-Copy-7">
            <use id="Oval" stroke="#F7563C" mask="url(#mask-2)" stroke-width="4" xlink:href="#path-1"></use>
            <path d="M14.9794312,6.58039693 C14.9794312,7.01582479 14.815327,7.38769716 14.485542,7.69346697 C14.1566059,8.00032838 13.7602332,8.15388038 13.296545,8.15388038 C12.8314013,8.15388038 12.4340582,8.00032838 12.1013622,7.69346697 C11.7692727,7.38757587 11.602864,7.01582479 11.602864,6.58039693 C11.602864,6.1458181 11.7692727,5.77333928 12.1013622,5.46368822 C12.4334517,5.15452231 12.8315226,5 13.296545,5 C13.7601119,5 14.1566059,5.15488618 14.485542,5.46368822 C14.8155696,5.77333928 14.9794312,6.14593939 14.9794312,6.58039693 M14.8004085,17.0726315 L14.6113188,17.8456069 C14.0440497,18.0695066 13.5909136,18.2399178 13.2534873,18.3570831 C12.9156972,18.4746122 12.5232057,18.5330735 12.0760128,18.5330735 C11.3892739,18.5330735 10.8551167,18.3648456 10.4741477,18.0306941 C10.0931786,17.6952085 9.90263346,17.2700902 9.90263346,16.7543689 C9.90263346,16.5547271 9.91646041,16.3493846 9.94520593,16.140161 C9.97419402,15.9306947 10.0202839,15.6947874 10.0833542,15.4311049 L10.792289,12.9218761 C10.8553593,12.6816024 10.9089691,12.4539427 10.9519054,12.2386546 C10.9954482,12.0247006 11.0164312,11.8278484 11.0164312,11.650645 C11.0164312,11.3301992 10.9500861,11.106057 10.8180023,10.9800376 C10.6859184,10.8543821 10.4338797,10.7905841 10.0597028,10.7905841 C9.87643501,10.7905841 9.68807305,10.819936 9.49607241,10.8766993 C9.30322274,10.9337052 9.13839086,10.9887704 9,11.0399544 L9.18957486,10.2663726 C9.65399081,10.0772829 10.0979089,9.91536193 10.522542,9.78097361 C10.9471752,9.64622143 11.3483995,9.57878469 11.7279131,9.57878469 C12.4099217,9.57878469 12.9361951,9.74361657 13.3057629,10.0732803 C13.6753308,10.4031867 13.8600541,10.830852 13.8600541,11.3578532 C13.8600541,11.4668921 13.8479252,11.659014 13.821848,11.9336125 C13.7963773,12.2088175 13.7489533,12.4609775 13.6798185,12.6903352 L12.973916,15.189497 C12.9160611,15.3902305 12.864028,15.6197094 12.8187872,15.8779339 C12.7720909,16.1344604 12.7497737,16.3304635 12.7497737,16.4619409 C12.7497737,16.7937879 12.8237601,17.0203559 12.9720966,17.140796 C13.1215248,17.2612361 13.3789003,17.3211529 13.7444656,17.3211529 C13.9160897,17.3211529 14.1113651,17.2907093 14.3283513,17.2309138 C14.5447311,17.1711183 14.7025282,17.1186001 14.8004085,17.0726315" id="Page-1" fill="#F7563C"></path>
        </g>
    </g>
</svg>