<?xml version="1.0" encoding="UTF-8" standalone="no"?>
<svg width="24px" height="24px" viewBox="0 0 24 24" version="1.1" xmlns="http://www.w3.org/2000/svg" xmlns:xlink="http://www.w3.org/1999/xlink">
    <!-- Generator: Sketch 42 (36781) - http://www.bohemiancoding.com/sketch -->
    <title>icons/UGD-legend-border-point</title>
    <desc>Created with Sketch.</desc>
    <defs></defs>
    <g id="Symbols" stroke="none" stroke-width="1" fill="none" fill-rule="evenodd">
        <g id="icons/UGD-legend-border-point">
            <path d="M12,19 C8.13400675,19 5,15.8659932 5,12 C5,8.13400675 8.13400675,5 12,5 C15.8659932,5 19,8.13400675 19,12 C19,15.8659932 15.8659932,19 12,19 Z" id="Path" fill="#52595E"></path>
            <path d="M12,17 C14.7614237,17 17,14.7614237 17,12 C17,9.23857625 14.7614237,7 12,7 C9.23857625,7 7,9.23857625 7,12 C7,14.7614237 9.23857625,17 12,17 Z" id="Oval-3" fill="#F4BF3D" fill-rule="nonzero"></path>
            <path d="M8,8 L16.253787,16.253787" id="Path-4-Copy" stroke="#52595E" transform="translate(12.126894, 12.126894) rotate(-270.000000) translate(-12.126894, -12.126894) "></path>
            <path d="M8,8 L16.253787,16.253787" id="Path-4" stroke="#52595E"></path>
        </g>
    </g>
</svg>