<?xml version="1.0" encoding="UTF-8" standalone="no"?>
<svg width="24px" height="24px" viewBox="0 0 24 24" version="1.1" xmlns="http://www.w3.org/2000/svg" xmlns:xlink="http://www.w3.org/1999/xlink">
    <!-- Generator: Sketch 42 (36781) - http://www.bohemiancoding.com/sketch -->
    <title>icons/UGD-camp-icon Copy 21</title>
    <desc>Created with Sketch.</desc>
    <defs></defs>
    <g id="Symbols" stroke="none" stroke-width="1" fill="none" fill-rule="evenodd">
        <g id="icons/UGD-camp-icon-Copy-21" fill="#FFFFFF">
            <path d="M13.212685,11.9998929 L17.7492991,7.46327875 C18.083567,7.12815385 18.083567,6.58646858 17.7492991,6.25134368 C17.4141742,5.91621877 16.8716319,5.91621877 16.536507,6.25134368 L12.00075,10.7879578 L7.46413585,6.25134368 C7.12901095,5.91621877 6.58732568,5.91621877 6.25220077,6.25134368 C5.91707587,6.58646858 5.91707587,7.12815385 6.25220077,7.46327875 L10.7879578,11.9998929 L6.25134368,16.536507 C5.91621877,16.8716319 5.91621877,17.4133171 6.25134368,17.748442 C6.41847758,17.915576 6.6378944,17.9995715 6.85731122,17.9995715 C7.07672803,17.9995715 7.29614485,17.915576 7.46327875,17.748442 L12.00075,13.2118279 L16.536507,17.748442 C16.7036409,17.915576 16.9230577,17.9995715 17.1424745,17.9995715 C17.3627484,17.9995715 17.5821652,17.915576 17.7492991,17.748442 C18.083567,17.4133171 18.083567,16.8716319 17.7492991,16.536507 L13.212685,11.9998929 Z" id="Fill-1"></path>
        </g>
    </g>
</svg>