<?xml version="1.0" encoding="UTF-8" standalone="no"?>
<svg width="24px" height="24px" viewBox="0 0 24 24" version="1.1" xmlns="http://www.w3.org/2000/svg" xmlns:xlink="http://www.w3.org/1999/xlink">
    <!-- Generator: Sketch 42 (36781) - http://www.bohemiancoding.com/sketch -->
    <title>icons/UGD-legend-camp-size</title>
    <desc>Created with Sketch.</desc>
    <defs>
        <polygon id="path-1" points="1.5275731e-16 11.9995 1.5275731e-16 0.015 13.644 0.015 13.644 11.9995 0 11.9995"></polygon>
        <polygon id="path-3" points="8.90546797 8 0.000132025091 8 0.000132025091 0.1181 8.90546797 0.1181 8.90546797 8"></polygon>
    </defs>
    <g id="Symbols" stroke="none" stroke-width="1" fill="none" fill-rule="evenodd">
        <g id="icons/UGD-legend-camp-size">
            <g id="Page-1-Copy" transform="translate(10.000000, 6.000000)">
                <polygon id="Fill-1" fill="#FFFFFF" points="1.2645 11.9855 12.3785 11.9855 6.8225 2.3605"></polygon>
                <g id="Group-4" transform="translate(0.000000, 0.985400)">
                    <mask id="mask-2" fill="white">
                        <use xlink:href="#path-1"></use>
                    </mask>
                    <g id="Clip-3"></g>
                    <path d="M6.822,0.0145 C6.607,0.0145 6.392,0.1205 6.269,0.3335 L0.086,11.0425 C-0.159,11.4685 0.148,11.9995 0.639,11.9995 L13.005,11.9995 C13.496,11.9995 13.803,11.4685 13.558,11.0425 L7.375,0.3335 C7.252,0.1205 7.037,0.0145 6.822,0.0145 M6.822,3.3765 L10.646,9.9995 L2.998,9.9995 L6.822,3.3765 M8.001,1.3335 L8.006,1.3335 L8.001,1.3335" id="Fill-2" fill="#F8563C" mask="url(#mask-2)"></path>
                </g>
            </g>
            <g id="Page-1" transform="translate(0.000000, 10.000000)">
                <polygon id="Fill-1" fill="#FFFFFF" points="1.2663 7.88155 4.4533 2.36155 7.6393 7.88155"></polygon>
                <g id="Group-4" transform="translate(0.000000, 0.881850)">
                    <mask id="mask-4" fill="white">
                        <use xlink:href="#path-3"></use>
                    </mask>
                    <g id="Clip-3"></g>
                    <path d="M4.4528,0.1181 C4.2378,0.1181 4.0228,0.2241 3.8998,0.4371 L0.0868,7.0431 C-0.1592,7.4681 0.1478,8.0001 0.6388,8.0001 L8.2668,8.0001 C8.7578,8.0001 9.0648,7.4681 8.8188,7.0431 L5.0058,0.4371 C4.8828,0.2241 4.6678,0.1181 4.4528,0.1181 M4.4528,3.4801 L5.9078,6.0001 L2.9978,6.0001 L4.4528,3.4801 M5.6318,1.4371 L5.6368,1.4371 L5.6318,1.4371" id="Fill-2" fill="#F8563C" mask="url(#mask-4)"></path>
                </g>
            </g>
        </g>
    </g>
</svg>