<?xml version="1.0" encoding="UTF-8" standalone="no"?>
<svg width="16px" height="16px" viewBox="0 0 16 16" version="1.1" xmlns="http://www.w3.org/2000/svg" xmlns:xlink="http://www.w3.org/1999/xlink">
    <!-- Generator: Sketch 42 (36781) - http://www.bohemiancoding.com/sketch -->
    <title>icons/UGD-clear</title>
    <desc>Created with Sketch.</desc>
    <defs></defs>
    <g id="Symbols" stroke="none" stroke-width="1" fill="none" fill-rule="evenodd">
        <g id="icons/UGD-clear" fill="#52595E">
            <path d="M8.80845669,7.99992858 L11.8328661,4.97551917 C12.0557113,4.75210257 12.0557113,4.39097905 11.8328661,4.16756245 C11.6094495,3.94414585 11.2477546,3.94414585 11.024338,4.16756245 L8.00049997,7.19197186 L4.97609057,4.16756245 C4.75267396,3.94414585 4.39155045,3.94414585 4.16813385,4.16756245 C3.94471725,4.39097905 3.94471725,4.75210257 4.16813385,4.97551917 L7.19197186,7.99992858 L4.16756245,11.024338 C3.94414585,11.2477546 3.94414585,11.6088781 4.16756245,11.8322947 C4.27898505,11.9437173 4.42526293,11.9997143 4.57154081,11.9997143 C4.71781869,11.9997143 4.86409657,11.9437173 4.97551917,11.8322947 L8.00049997,8.80788529 L11.024338,11.8322947 C11.1357606,11.9437173 11.2820385,11.9997143 11.4283163,11.9997143 C11.5751656,11.9997143 11.7214435,11.9437173 11.8328661,11.8322947 C12.0557113,11.6088781 12.0557113,11.2477546 11.8328661,11.024338 L8.80845669,7.99992858 Z" id="Fill-1"></path>
        </g>
    </g>
</svg>