<?xml version="1.0" encoding="utf-8"?>
<!-- Generator: Adobe Illustrator 16.0.0, SVG Export Plug-In . SVG Version: 6.00 Build 0)  -->
<!DOCTYPE svg PUBLIC "-//W3C//DTD SVG 1.0//EN" "http://www.w3.org/TR/2001/REC-SVG-20010904/DTD/svg10.dtd">
<svg version="1.0" id="Layer_1" xmlns="http://www.w3.org/2000/svg" xmlns:xlink="http://www.w3.org/1999/xlink" x="0px" y="0px"
	 width="24px" height="24px" viewBox="0 0 24 24" enable-background="new 0 0 24 24" xml:space="preserve">
<title>icons/UGD-camp-icon Copy 21</title>
<desc>Created with Sketch.</desc>
<g id="Symbols">
	<g id="icons_x2F_UGD-camp-icon-Copy-21">
		<path id="Fill-1" fill="#F7563C" d="M13.213,12l4.537-4.537c0.334-0.335,0.334-0.877,0-1.212c-0.336-0.335-0.879-0.335-1.213,0
			l-4.536,4.537L7.464,6.251c-0.335-0.335-0.877-0.335-1.212,0c-0.335,0.335-0.335,0.876,0,1.212L10.788,12l-4.537,4.537
			c-0.335,0.334-0.335,0.876,0,1.211C6.418,17.916,6.638,18,6.857,18c0.219,0,0.438-0.084,0.606-0.252l4.538-4.536l4.536,4.536
			C16.703,17.916,16.923,18,17.143,18c0.221,0,0.439-0.084,0.607-0.252c0.334-0.335,0.334-0.877,0-1.211L13.213,12z"/>
	</g>
</g>
</svg>
