<?xml version="1.0" encoding="UTF-8" standalone="no"?>
<svg width="24px" height="24px" viewBox="0 0 24 24" version="1.1" xmlns="http://www.w3.org/2000/svg" xmlns:xlink="http://www.w3.org/1999/xlink">
    <!-- Generator: Sketch 42 (36781) - http://www.bohemiancoding.com/sketch -->
    <title>icons/UGD-legend-transition-center_un</title>
    <desc>Created with Sketch.</desc>
    <defs></defs>
    <g id="Symbols" stroke="none" stroke-width="1" fill="none" fill-rule="evenodd">
        <g id="icons/UGD-legend-transition-center_un">
            <g id="Page-1" transform="translate(6.000000, 5.000000)">
                <polygon id="Fill-1" fill="#FFFFFF" points="9.67792208 4.2302439 6.09350649 1.38926829 2.11948052 4.2302439 2.11948052 12.6907317 9.67792208 12.6907317"></polygon>
                <g id="Group-10" transform="translate(0.000000, 0.070244)" fill="#52595E">
                    <path d="M9.26493506,12.675122 L9.26493506,12.6360976 C9.26493506,12.5970732 9.27272727,12.5580488 9.28051948,12.5190244 C9.28831169,12.4643902 9.2961039,12.4019512 9.2961039,12.3473171 C9.2961039,9.91219512 9.2961039,7.39121951 9.3038961,4.91707317 C9.3038961,4.72195122 9.24935065,4.59707317 9.10909091,4.48 C8.57922078,4.02731707 8.05714286,3.58243902 7.54285714,3.13756098 C7.02857143,2.7004878 6.51428571,2.26341463 6,1.81853659 C5.47012987,2.25560976 4.96363636,2.68487805 4.4961039,3.08292683 C3.95064935,3.54341463 3.37402597,4.04292683 2.81298701,4.52682927 C2.75064935,4.58146341 2.68051948,4.69073171 2.68051948,4.78439024 C2.67272727,6.52487805 2.68051948,8.29658537 2.68051948,10.0136585 L2.68051948,12.6282927 L2.68051948,12.6673171 L2.64155844,12.6673171 C2.23636364,12.6595122 1.82337662,12.6595122 1.41818182,12.6595122 L1.37922078,12.6595122 L1.37922078,12.6204878 C1.37922078,12.5814634 1.38701299,12.5502439 1.39480519,12.5112195 C1.4025974,12.4565854 1.41038961,12.4097561 1.41038961,12.3629268 L1.41038961,5.96292683 C1.41038961,5.89268293 1.4025974,5.8302439 1.39480519,5.73658537 C1.20779221,5.9004878 1.02077922,6.04878049 0.841558442,6.20487805 C0.6,6.40780488 0.358441558,6.61073171 0.101298701,6.82926829 L0.038961039,6.88390244 L0.038961039,6.79804878 C0.038961039,6.2204878 0.038961039,5.67414634 0.0467532468,5.14341463 C0.0467532468,5.08878049 0.0935064935,5.0497561 0.148051948,5.00292683 C0.163636364,4.99512195 0.171428571,4.9795122 0.187012987,4.97170732 C0.857142857,4.40195122 1.51948052,3.84 2.18961039,3.2702439 C3.3974026,2.23219512 4.65974026,1.16292683 5.8987013,0.109268293 C5.91428571,0.0936585366 5.92987013,0.0936585366 5.94545455,0.0858536585 C5.95324675,0.0780487805 5.96883117,0.0780487805 5.98441558,0.0702439024 L6.00779221,0.0624390244 L6.03116883,0.0780487805 C7.94805195,1.70146341 9.87272727,3.32487805 11.7974026,4.95609756 L11.9298701,5.06536585 L11.9298701,6.86829268 L11.8675325,6.81365854 C11.6805195,6.65756098 11.4935065,6.50146341 11.3064935,6.34536585 C11.0727273,6.1502439 10.8311688,5.94731707 10.5896104,5.74439024 C10.5896104,5.75219512 10.5896104,5.75219512 10.5818182,5.76 C10.574026,5.78341463 10.574026,5.79121951 10.574026,5.79902439 L10.574026,9.21756098 L10.574026,12.6360976 L10.574026,12.675122 L9.26493506,12.675122 Z" id="Fill-2"></path>
                    <path d="M6.00779221,0.00780487805 L5.96883117,0.0312195122 C5.95324675,0.0390243902 5.93766234,0.0468292683 5.92987013,0.0468292683 C5.91428571,0.0546341463 5.89090909,0.0624390244 5.87532468,0.0780487805 C4.62857143,1.13170732 3.37402597,2.20097561 2.15844156,3.23121951 C1.48831169,3.80097561 0.825974026,4.37073171 0.155844156,4.93268293 C0.148051948,4.9404878 0.132467532,4.95609756 0.116883117,4.96390244 C0.0623376623,5.01073171 0.00779220779,5.06536585 0.00779220779,5.13560976 C0,5.66634146 0,6.21268293 0,6.7902439 L0,6.96195122 L0.124675325,6.85268293 C0.381818182,6.63414634 0.623376623,6.43121951 0.864935065,6.22829268 C1.02857143,6.08780488 1.19220779,5.94731707 1.36363636,5.80682927 C1.37142857,5.86146341 1.37142857,5.90829268 1.37142857,5.95512195 L1.37142857,12.355122 C1.37142857,12.4019512 1.36363636,12.4487805 1.35584416,12.4956098 C1.34805195,12.5268293 1.34805195,12.5658537 1.34025974,12.604878 L1.33246753,12.6907317 L1.41818182,12.6907317 C1.82337662,12.6907317 2.23636364,12.6907317 2.64155844,12.6985366 L2.71948052,12.6985366 L2.71948052,12.6204878 L2.71948052,10.0058537 L2.71948052,4.77658537 C2.71948052,4.70634146 2.77402597,4.61268293 2.84415584,4.54243902 C3.3974026,4.05853659 3.95064935,3.58243902 4.52727273,3.09853659 C4.98701299,2.70829268 5.47792208,2.29463415 5.99220779,1.85756098 C6.4987013,2.29463415 7.00519481,2.72390244 7.51168831,3.15317073 C8.03376623,3.59804878 8.55584416,4.04292683 9.07792208,4.48780488 C9.21038961,4.60487805 9.25714286,4.70634146 9.25714286,4.89365854 C9.24935065,7.36780488 9.24935065,9.88878049 9.24935065,12.3239024 C9.24935065,12.3785366 9.24155844,12.4331707 9.23376623,12.4878049 C9.22597403,12.5268293 9.22597403,12.5658537 9.21818182,12.604878 L9.21038961,12.6907317 L9.2961039,12.6907317 L10.5272727,12.6907317 L10.6051948,12.6907317 L10.6051948,12.6126829 C10.6051948,11.4731707 10.6051948,10.3180488 10.5974026,9.19414634 L10.5974026,5.79121951 C10.8233766,5.97853659 11.0493506,6.16585366 11.2675325,6.34536585 C11.4545455,6.50146341 11.6415584,6.65756098 11.8285714,6.81365854 L11.9532468,6.92292683 L11.9532468,6.75902439 L11.9532468,5.08097561 L11.9532468,5.04195122 L11.9220779,5.01853659 C9.96623377,3.35609756 8.0025974,1.69365854 6.04675325,0.0390243902 L6.00779221,0.00780487805 Z M6,0.101463415 C7.95584416,1.75609756 9.91948052,3.41853659 11.8831169,5.08097561 L11.8831169,6.78243902 C11.4467532,6.41560976 11.0103896,6.05658537 10.5584416,5.67414634 C10.5428571,5.74439024 10.5272727,5.76780488 10.5272727,5.79902439 C10.5272727,8.07804878 10.5350649,10.3570732 10.5350649,12.6360976 L9.3038961,12.6360976 C9.31168831,12.542439 9.33506494,12.4409756 9.33506494,12.3473171 C9.33506494,9.87317073 9.33506494,7.39121951 9.34285714,4.91707317 C9.34285714,4.71414634 9.28831169,4.58146341 9.13246753,4.44878049 C8.08051948,3.55121951 7.04415584,2.66926829 5.99220779,1.77170732 C5.47792208,2.20097561 4.97922078,2.62243902 4.47272727,3.05170732 C3.91168831,3.52780488 3.34285714,4.01170732 2.78961039,4.49560976 C2.71168831,4.56585366 2.64155844,4.68292683 2.64155844,4.78439024 C2.63376623,7.39902439 2.64155844,10.0136585 2.64155844,12.6282927 C2.23636364,12.6204878 1.82337662,12.6204878 1.41818182,12.6204878 C1.42597403,12.5346341 1.44935065,12.4487805 1.44935065,12.3629268 L1.44935065,5.96292683 C1.44935065,5.87707317 1.44155844,5.79902439 1.42597403,5.65853659 C0.966233766,6.04878049 0.545454545,6.4 0.0779220779,6.79804878 C0.0779220779,6.21268293 0.0779220779,5.67414634 0.0857142857,5.14341463 C0.0857142857,5.09658537 0.163636364,5.04195122 0.21038961,4.99512195 C2.11168831,3.3795122 4.01298701,1.75609756 5.92207792,0.140487805 C5.93766234,0.124878049 5.95324675,0.124878049 6,0.101463415 L6,0.101463415 Z" id="Fill-4"></path>
                    <path d="M6.91948052,12.6829268 C6.36623377,12.6595122 5.81298701,12.6595122 5.27532468,12.6595122 L5.23636364,12.6595122 L5.23636364,12.6204878 C5.23636364,12.6126829 5.23636364,12.5970732 5.24415584,12.5892683 L5.24415584,12.5658537 C5.32987013,12.0273171 5.17402597,11.6214634 4.76883117,11.324878 C4.55844156,11.1687805 4.46493506,10.9502439 4.47272727,10.6380488 C4.48831169,9.54536585 4.48831169,8.40585366 4.48051948,7.04 C4.48051948,6.85268293 4.51948052,6.71219512 4.72987013,6.61853659 C4.89350649,6.54829268 5.05714286,6.45463415 5.21298701,6.36878049 C5.29090909,6.32195122 5.37662338,6.28292683 5.45454545,6.23609756 C4.89350649,5.53365854 4.86233766,4.8702439 5.37662338,4.4097561 C5.58701299,4.22243902 5.82857143,4.12097561 6.09350649,4.12097561 C6.38181818,4.12097561 6.65454545,4.24585366 6.86493506,4.46439024 C7.33246753,4.95609756 7.28571429,5.65073171 6.74025974,6.22829268 C6.81038961,6.26731707 6.88051948,6.30634146 6.95064935,6.34536585 C7.14545455,6.45463415 7.34805195,6.56390244 7.53506494,6.67317073 C7.62077922,6.72 7.70649351,6.85268293 7.70649351,6.96195122 C7.71428571,8.24195122 7.71428571,9.54536585 7.70649351,10.8253659 C7.70649351,10.9580488 7.62857143,11.0907317 7.58181818,11.1609756 C7.48831169,11.2936585 7.38701299,11.395122 7.29350649,11.4653659 C6.86493506,11.7697561 6.88831169,12.1678049 6.95844156,12.6282927 L6.96623377,12.675122 L6.91948052,12.6829268 Z" id="Fill-6"></path>
                    <path d="M6.09350649,4.08195122 L6.09350649,4.08195122 C5.82857143,4.08195122 5.56363636,4.19121951 5.35324675,4.37853659 C4.83896104,4.83902439 4.85454545,5.52585366 5.39220779,6.2204878 C5.32207792,6.2595122 5.25974026,6.29073171 5.18961039,6.3297561 C5.03376623,6.41560976 4.87012987,6.50926829 4.70649351,6.5795122 C4.46493506,6.68097561 4.43376623,6.8604878 4.43376623,7.03219512 C4.44155844,8.39804878 4.44155844,9.53756098 4.42597403,10.6302439 C4.41818182,10.9502439 4.51948052,11.1843902 4.73766234,11.3482927 C5.13506494,11.6370732 5.28311688,12.0273171 5.1974026,12.542439 L5.1974026,12.5502439 L5.1974026,12.5580488 L5.1974026,12.5736585 C5.1974026,12.5892683 5.18961039,12.5970732 5.18961039,12.6126829 L5.18961039,12.6907317 L5.26753247,12.6907317 C5.80519481,12.6907317 6.35844156,12.6907317 6.91168831,12.7141463 L7.00519481,12.7219512 L6.98961039,12.6282927 C6.91948052,12.1834146 6.8961039,11.7931707 7.30909091,11.5043902 C7.41038961,11.4341463 7.51168831,11.324878 7.60519481,11.1921951 C7.65194805,11.1141463 7.73766234,10.9736585 7.73766234,10.8331707 C7.74545455,9.55317073 7.74545455,8.2497561 7.73766234,6.9697561 C7.73766234,6.84487805 7.63636364,6.70439024 7.54285714,6.64195122 C7.35584416,6.52487805 7.15324675,6.41560976 6.95844156,6.30634146 C6.9038961,6.27512195 6.84935065,6.24390244 6.79480519,6.2204878 C7.32467532,5.62731707 7.36363636,4.9404878 6.88831169,4.44097561 C6.67792208,4.21463415 6.38961039,4.08195122 6.09350649,4.08195122 M6.09350649,4.16 C6.35844156,4.16 6.62337662,4.26926829 6.84155844,4.49560976 C7.3012987,4.9795122 7.24675325,5.66634146 6.67792208,6.24390244 C6.95844156,6.4 7.24675325,6.54829268 7.51168831,6.71219512 C7.58961039,6.75902439 7.66753247,6.87609756 7.66753247,6.9697561 C7.67532468,8.25756098 7.67532468,9.54536585 7.66753247,10.8331707 C7.66753247,10.9346341 7.61298701,11.0517073 7.55064935,11.1453659 C7.47272727,11.2546341 7.37922078,11.3639024 7.27012987,11.4419512 C6.82597403,11.7541463 6.84935065,12.1834146 6.91948052,12.6439024 C6.36623377,12.6204878 5.82077922,12.6204878 5.27532468,12.6204878 C5.27532468,12.604878 5.28311688,12.5814634 5.28311688,12.5658537 C5.36883117,12.0429268 5.22857143,11.6136585 4.79220779,11.2936585 C4.58181818,11.137561 4.5038961,10.9190244 4.51168831,10.6380488 C4.52727273,9.43609756 4.52727273,8.24195122 4.51948052,7.04 C4.51948052,6.85268293 4.56623377,6.73560976 4.74545455,6.65756098 C5.01038961,6.5404878 5.25974026,6.38439024 5.51688312,6.25170732 C4.94025974,5.55707317 4.9012987,4.89365854 5.40779221,4.44097561 C5.61038961,4.25365854 5.85194805,4.16 6.09350649,4.16" id="Fill-8"></path>
                </g>
            </g>
        </g>
    </g>
</svg>